<svg width="100" height="100" viewBox="0 0 100 100" fill="none" xmlns="http://www.w3.org/2000/svg">
<path d="M43 6.35085C47.3316 3.84999 52.6684 3.84999 57 6.35085L84.3013 22.1132C88.6329 24.6141 91.3013 29.2359 91.3013 34.2376V65.7624C91.3013 70.7641 88.6329 75.3859 84.3013 77.8868L57 93.6491C52.6684 96.15 47.3316 96.15 43 93.6491L15.6987 77.8868C11.3671 75.3859 8.69873 70.7641 8.69873 65.7624V34.2376C8.69873 29.2359 11.3671 24.6141 15.6987 22.1132L43 6.35085Z" stroke="url(#paint0_linear_235_106)" stroke-width="4"/>
<g clip-path="url(#clip0_235_106)">
<path d="M64.8503 37.8952C66.8404 37.8995 68.7988 38.3944 70.5521 39.3361C72.3054 40.2778 73.7994 41.6372 74.9019 43.294C76.0045 44.9509 76.6815 46.854 76.8731 48.8349C77.0647 50.8158 76.7649 52.8134 76.0003 54.6508C75.2357 56.4882 74.0299 58.1088 72.4896 59.369C70.9493 60.6292 69.1221 61.4903 67.1696 61.8758C65.2172 62.2614 63.1998 62.1597 61.2961 61.5796C59.3923 60.9995 57.661 59.959 56.2553 58.5502L50.0003 53.0152L43.6328 58.6627C41.3717 60.8867 38.3218 62.1245 35.1503 62.1052C33.1602 62.101 31.2018 61.6061 29.4485 60.6644C27.6953 59.7227 26.2012 58.3633 25.0987 56.7064C23.9961 55.0496 23.3191 53.1465 23.1275 51.1656C22.9359 49.1847 23.2357 47.1871 24.0003 45.3497C24.7649 43.5123 25.9707 41.8917 27.511 40.6315C29.0513 39.3713 30.8785 38.5102 32.831 38.1246C34.7834 37.7391 36.8008 37.8408 38.7045 38.4209C40.6083 39.0009 42.3396 40.0414 43.7453 41.4502L50.0003 46.9852L56.3678 41.3377C58.6289 39.1137 61.6788 37.876 64.8503 37.8952ZM40.5503 55.3777L46.6253 50.0002L40.6403 44.7127C39.7684 43.7988 38.6831 43.1157 37.482 42.7248C36.2808 42.3338 35.0014 42.2473 33.7585 42.473C32.5157 42.6988 31.3484 43.2296 30.3614 44.0179C29.3744 44.8062 28.5986 45.8273 28.1037 46.9894C27.6088 48.1516 27.4103 49.4185 27.526 50.6764C27.6417 51.9342 28.068 53.1437 28.7665 54.1961C29.4651 55.2485 30.4141 56.1109 31.5283 56.706C32.6426 57.301 33.8872 57.61 35.1503 57.6052C36.1547 57.6077 37.1496 57.41 38.0768 57.0237C39.0039 56.6374 39.8448 56.0702 40.5503 55.3552M59.4503 44.6002L53.3753 50.0002L59.3603 55.2877C60.2322 56.2017 61.3175 56.8848 62.5187 57.2757C63.7198 57.6667 64.9992 57.7531 66.2421 57.5274C67.4849 57.3017 68.6522 56.7709 69.6392 55.9826C70.6262 55.1943 71.402 54.1732 71.8969 53.011C72.3918 51.8489 72.5903 50.582 72.4746 49.3241C72.3589 48.0662 71.9327 46.8568 71.2341 45.8044C70.5355 44.752 69.5865 43.8895 68.4723 43.2945C67.358 42.6995 66.1135 42.3905 64.8503 42.3952C63.8475 42.3898 62.8536 42.584 61.9265 42.9664C60.9994 43.3488 60.1577 43.9118 59.4503 44.6227V44.6002Z" fill="#8A82E4"/>
</g>
<defs>
<linearGradient id="paint0_linear_235_106" x1="50" y1="0" x2="50" y2="100" gradientUnits="userSpaceOnUse">
<stop stop-color="#8A82E4"/>
<stop offset="1" stop-color="#8A82E4" stop-opacity="0.5"/>
</linearGradient>
<clipPath id="clip0_235_106">
<rect width="54" height="54" fill="white" transform="translate(23 23)"/>
</clipPath>
</defs>
</svg>
