<svg width="100" height="106" viewBox="0 0 100 106" fill="none" xmlns="http://www.w3.org/2000/svg">
<g filter="url(#filter0_d_235_107)">
<path d="M43 6.35085C47.3316 3.84999 52.6684 3.84999 57 6.35085L84.3013 22.1132C88.6329 24.6141 91.3013 29.2359 91.3013 34.2376V65.7624C91.3013 70.7641 88.6329 75.3859 84.3013 77.8868L57 93.6491C52.6684 96.15 47.3316 96.15 43 93.6491L15.6987 77.8868C11.3671 75.3859 8.69873 70.7641 8.69873 65.7624V34.2376C8.69873 29.2359 11.3671 24.6141 15.6987 22.1132L43 6.35085Z" stroke="url(#paint0_linear_235_107)" stroke-width="4"/>
<path d="M37.7781 59.7775H36.5559C35.2593 59.7775 34.0158 59.2624 33.0989 58.3456C32.1821 57.4287 31.667 56.1852 31.667 54.8886V49.9997C31.667 48.7031 32.1821 47.4596 33.0989 46.5428C34.0158 45.6259 35.2593 45.1108 36.5559 45.1108H37.7781C38.1023 45.1108 38.4131 45.2396 38.6423 45.4688C38.8716 45.698 39.0003 46.0089 39.0003 46.3331V58.5553C39.0003 58.8794 38.8716 59.1903 38.6423 59.4195C38.4131 59.6487 38.1023 59.7775 37.7781 59.7775Z" stroke="#8A82E4" stroke-width="2" stroke-linecap="round" stroke-linejoin="round"/>
<path d="M63.4444 59.7775H62.2222C61.8981 59.7775 61.5872 59.6487 61.358 59.4195C61.1288 59.1903 61 58.8794 61 58.5553V46.3331C61 46.0089 61.1288 45.698 61.358 45.4688C61.5872 45.2396 61.8981 45.1108 62.2222 45.1108H63.4444C64.7411 45.1108 65.9846 45.6259 66.9014 46.5428C67.8183 47.4596 68.3333 48.7031 68.3333 49.9997V54.8886C68.3333 56.1852 67.8183 57.4287 66.9014 58.3456C65.9846 59.2624 64.7411 59.7775 63.4444 59.7775Z" stroke="#8A82E4" stroke-width="2" stroke-linecap="round" stroke-linejoin="round"/>
<path d="M36.5566 45.1109C36.5566 41.5453 37.9731 38.1256 40.4944 35.6043C43.0157 33.083 46.4354 31.6665 50.0011 31.6665V31.6665C53.5668 31.6665 56.9864 33.083 59.5077 35.6043C62.0291 38.1256 63.4455 41.5453 63.4455 45.1109" stroke="#8A82E4" stroke-width="2" stroke-linecap="round" stroke-linejoin="round"/>
<path d="M54.8896 65.8889H58.5563C59.8529 65.8889 61.0964 65.3739 62.0133 64.457C62.9301 63.5402 63.4452 62.2967 63.4452 61.0001V59.7778" stroke="#8A82E4" stroke-width="2" stroke-linecap="round" stroke-linejoin="round"/>
<path d="M52.4455 68.3332H50.0011C49.3528 68.3332 48.731 68.0757 48.2726 67.6173C47.8142 67.1588 47.5566 66.5371 47.5566 65.8888C47.5566 65.2405 47.8142 64.6187 48.2726 64.1603C48.731 63.7019 49.3528 63.4443 50.0011 63.4443H52.4455C53.0938 63.4443 53.7156 63.7019 54.174 64.1603C54.6324 64.6187 54.89 65.2405 54.89 65.8888C54.89 66.5371 54.6324 67.1588 54.174 67.6173C53.7156 68.0757 53.0938 68.3332 52.4455 68.3332Z" stroke="#8A82E4" stroke-width="2" stroke-linecap="round" stroke-linejoin="round"/>
</g>
<defs>
<filter id="filter0_d_235_107" x="2.69922" y="2.4751" width="94.6016" height="103.05" filterUnits="userSpaceOnUse" color-interpolation-filters="sRGB">
<feFlood flood-opacity="0" result="BackgroundImageFix"/>
<feColorMatrix in="SourceAlpha" type="matrix" values="0 0 0 0 0 0 0 0 0 0 0 0 0 0 0 0 0 0 127 0" result="hardAlpha"/>
<feOffset dy="4"/>
<feGaussianBlur stdDeviation="2"/>
<feComposite in2="hardAlpha" operator="out"/>
<feColorMatrix type="matrix" values="0 0 0 0 0 0 0 0 0 0 0 0 0 0 0 0 0 0 0.25 0"/>
<feBlend mode="normal" in2="BackgroundImageFix" result="effect1_dropShadow_235_107"/>
<feBlend mode="normal" in="SourceGraphic" in2="effect1_dropShadow_235_107" result="shape"/>
</filter>
<linearGradient id="paint0_linear_235_107" x1="50" y1="0" x2="50" y2="100" gradientUnits="userSpaceOnUse">
<stop stop-color="#8A82E4"/>
<stop offset="1" stop-color="#8A82E4" stop-opacity="0.5"/>
</linearGradient>
</defs>
</svg>
